/* XPM */
static char *_9444_00c6df5b9e90eee9dea8f5df716017288147debd6ed470c19ae0313a0825547d[] = {
/* columns rows colors chars-per-pixel */
"32 32 7 1 ",
"  c #181825",
". c #675934",
"X c #B08C48",
"o c #CDB169",
"O c #E8CD9F",
"+ c #F3E2C6",
"@ c None",
/* pixels */
"@@@@@@@@@@@@@@@@@@@@@@@@@@@@@@@@",
"@@@@@@@@@@    @@@@@@    @@@@@@@@",
"@@@@@@@@@@    @@@@@@    @@@@@@@@",
"@@@@@@@@  ++OO  @@  OO++  @@@@@@",
"@@@@@@@@  ++OO  @@  OO++  @@@@@@",
"@@@@@@@@  OO++  @@  ++OO  @@@@@@",
"@@@@@@@@  OO++  @@  ++OO  @@@@@@",
"@@@@@@@@  oo++..XX..++oo  @@@@@@",
"@@@@@@@@  oo++..XX..++oo  @@@@@@",
"@@@@@@@@  XXOOooOOooOOXX  @@@@@@",
"@@@@@@@@  XXOOooOOooOOXX  @@@@@@",
"@@@@@@@@  OO++++++++++OO  @@@@@@",
"@@@@@@@@  OO++++++++++OO  @@@@@@",
"@@@@@@@@  OO++OOOOOO++OO  @@@@@@",
"@@@@@@@@  OO++OOOOOO++OO  @@@@@@",
"@@@@@@@@  ooXXooooooXXoo  @@@@@@",
"@@@@@@@@  ooXXooooooXXoo  @@@@@@",
"@@@@@@@@@@  OO++++++OO  @@@@@@@@",
"@@@@@@@@@@  OO++++++OO  @@@@@@@@",
"@@@@@@@@@@  ++++++++++  @@@@@@@@",
"@@@@@@@@@@  ++++++++++  @@@@@@@@",
"@@@@@@@@@@  ++++++++++  @@@@@@@@",
"@@@@@@@@@@  ++++++++++  @@@@@@@@",
"@@@@@@@@@@  OO++++++OO  @@@@@@@@",
"@@@@@@@@@@  OO++++++OO  @@@@@@@@",
"@@@@@@@@@@  oo++..++oo  @@@@@@@@",
"@@@@@@@@@@  oo++..++oo  @@@@@@@@",
"@@@@@@@@@@  XX..++..XX  @@@@@@@@",
"@@@@@@@@@@  XX..++..XX  @@@@@@@@",
"@@@@@@@@@@@@    ..    @@@@@@@@@@",
"@@@@@@@@@@@@    ..    @@@@@@@@@@",
"@@@@@@@@@@@@@@@@@@@@@@@@@@@@@@@@"
};
