/* XPM */
static char *back[] = {
/* columns rows colors chars-per-pixel */
"32 32 60 1 ",
"  c None",
". c #4E3F72",
"X c #3756A6",
"o c #5F489E",
"O c #705BA3",
"+ c #7661B2",
"@ c #7762B2",
"# c #7862B2",
"$ c #7863B3",
"% c #7B66B6",
"& c #7D69C0",
"* c #8C5BA1",
"= c #A775BC",
"- c #8773C5",
"; c #8B77C3",
": c #E285B9",
"> c #FFCEBF",
", c #A38EEE",
"< c #AA93F7",
"1 c #B39EF8",
"2 c #BDABF9",
"3 c #CC84C3",
"4 c #D587C7",
"5 c #D788C7",
"6 c #DF8CC7",
"7 c #E08CC7",
"8 c #E08DC7",
"9 c #E18DC7",
"0 c #E08FC7",
"q c #E28EC7",
"w c #E090C7",
"e c #E291C7",
"r c #E490C7",
"t c #E791C7",
"y c #E893C7",
"u c #ED97C7",
"i c #EE98C7",
"p c #E993C8",
"a c #EB94C8",
"s c #EE95C8",
"d c #EF96C8",
"f c #F097C7",
"g c #F198C7",
"h c #F197C8",
"j c #F39AC8",
"k c #F89FC8",
"l c #F9A1C8",
"z c #F9A0C9",
"x c #F6B8C1",
"c c #FBB2D6",
"v c #FBBAD8",
"b c #C1AEFF",
"n c #CBBDF9",
"m c #FFBEE2",
"M c #FFDFC2",
"N c #FFD0E8",
"B c #FFE9F5",
"V c #FDFDFE",
"C c #FEFEFE",
"Z c white",
/* pixels */
"                                ",
"                66669           ",
"      l l    46hlwilh64         ",
"     ll:ll   hhllw9llhc         ",
"     hlllh  4hllfswjlvv4        ",
"      :l:   6hhlh9sjvNN6        ",
"       .   3hlllh96kNBvh3       ",
"       O   4yllhh69jvlls4       ",
"       OM   46hhgw6hhhy5        ",
"       OM   39666w9s6663        ",
"       O>M   X33666633X         ",
"       O >M @h 333333 l         ",
"       O  >x@lh@@>>@@ hl        ",
"       O   @n@lZZZZZZ@ hhl m    ",
"          @1nl@ZZZZZZ@@@66h     ",
"           @1os$@@@$$;n1@       ",
"            @ l@,11,@no@x       ",
"             m o@@@@o   >MM     ",
"              @bnnnnb@    >MM   ",
"             @nn1nn1nn@         ",
"            @n1n<n2<n1n@        ",
"          o&n1,n,21,n,1n&o      ",
"            o-n1-@@-1n-o        ",
"             oo@@  @@oo         ",
"               >>  >>           ",
"               MM  MM           ",
"               ZZ  ZZ           ",
"               =Z  Z=           ",
"               *=  =*           ",
"                =  =            ",
"                                ",
"                                "
};
