/* XPM */
static char *moon2[] = {
/* columns rows colors chars-per-pixel */
"32 32 6 1 ",
"  c None",
". c #F7A1C8",
"X c #FFC3C2",
"o c #FFD5C9",
"O c #FFE7DE",
"+ c #FFF2ED",
/* pixels */
"                                ",
"                                ",
"                                ",
"                                ",
"                                ",
"                                ",
"                                ",
"                                ",
"               .....            ",
"             ..OOOoo..          ",
"           ..O+Ooo..  .         ",
"          .OO+Oo..              ",
"          .O+Oo.                ",
"         .O++o.                 ",
"         .O+Oo.                 ",
"        .O+Oo.                  ",
"        .O+Oo.                  ",
"        .O+Oo.                  ",
"        .O+Oo.                  ",
"        .O+Oo.                  ",
"         .O+Oo.                 ",
"         .O++o.                 ",
"          .O+Oo.                ",
"          .OO+Oo..              ",
"           ..O+Ooo..  .         ",
"             ..OOooX..          ",
"               .....            ",
"                                ",
"                                ",
"                                ",
"                                ",
"                                "
};
