/* XPM */
static char *_627806593656[] = {
/* columns rows colors chars-per-pixel */
"32 32 4 1 ",
"  c #320000",
". c #C8BDC8",
"X c white",
"o c None",
/* pixels */
"oooooooooooooooooooooooooooooooo",
"oooooooooooooooooooooooooooooooo",
"oooooooooooooooooooooooooooooooo",
"oooooooooooooooooooooooooooooooo",
"oooooooooooooooooooooooooooooooo",
"ooooooooo               oooooooo",
"ooooooooo XXXXXXXXXXXXX oooooooo",
"ooooooooo XXXX  XXXXXXX oooooooo",
"ooooooooo XXX    XXXXXX oooooooo",
"ooooooooo XXX    XXXXXX oooooooo",
"ooooooooo XXXX  XXXXXXX oooooooo",
"ooooooooo XXXXXX   XXXX oooooooo",
"ooooooooo XXX       XXX oooooooo",
"ooooooooo XX     XX  XX oooooooo",
"ooooooooo     X   XX  X oooooooo",
"ooooooooo    XXX  XXXXX oooooooo",
"ooooooooo XXXXX    XXXX oooooooo",
"ooooooooo XXXX          oooooooo",
"ooooooooo XXX   XX      oooooooo",
"oooooooo       XXXX XXX oooooooo",
"oooooooo ....  XXX X    oooooooo",
"oooooooo .     XX     X  ooooooo",
"oooooooo ...  X  X X XXX ooooooo",
"oooooooo .     XX  X  X  ooooooo",
"oooooooo .     XX  X  X  ooooooo",
"oooooooo .... X  X X  XX ooooooo",
"oooooooo                 ooooooo",
"oooooooooooooooooooooooooooooooo",
"oooooooooooooooooooooooooooooooo",
"oooooooooooooooooooooooooooooooo",
"oooooooooooooooooooooooooooooooo",
"oooooooooooooooooooooooooooooooo"
};
