/* XPM */
static char *_627805246697[] = {
/* columns rows colors chars-per-pixel */
"32 32 242 2 ",
"   c #9EB7C0",
".  c #55602A",
"X  c white",
"o  c red",
"O  c yellow",
"+  c green",
"@  c #000556",
"#  c black",
"$  c black",
"%  c black",
"&  c black",
"*  c black",
"=  c black",
"-  c black",
";  c black",
":  c black",
">  c black",
",  c black",
"<  c black",
"1  c black",
"2  c black",
"3  c black",
"4  c black",
"5  c black",
"6  c black",
"7  c black",
"8  c black",
"9  c black",
"0  c black",
"q  c black",
"w  c black",
"e  c black",
"r  c black",
"t  c black",
"y  c #6E545D",
"u  c black",
"i  c black",
"p  c #9B7261",
"a  c black",
"s  c black",
"d  c black",
"f  c #B692AD",
"g  c black",
"h  c black",
"j  c #D9C7CB",
"k  c black",
"l  c black",
"z  c black",
"x  c black",
"c  c #55453B",
"v  c black",
"b  c black",
"n  c #856957",
"m  c black",
"M  c black",
"N  c #A38977",
"B  c black",
"V  c #BD9387",
"C  c #BAA6A4",
"Z  c black",
"A  c #EEB8A2",
"S  c black",
"D  c black",
"F  c black",
"G  c black",
"H  c black",
"J  c black",
"K  c black",
"L  c black",
"P  c black",
"I  c black",
"U  c black",
"Y  c #BE9970",
"T  c black",
"R  c black",
"E  c black",
"W  c black",
"Q  c black",
"!  c black",
"~  c black",
"^  c black",
"/  c black",
"(  c black",
")  c black",
"_  c black",
"`  c black",
"'  c black",
"]  c black",
"[  c black",
"{  c black",
"}  c black",
"|  c black",
" . c black",
".. c black",
"X. c black",
"o. c black",
"O. c black",
"+. c black",
"@. c #70644E",
"#. c black",
"$. c #9D7C4F",
"%. c black",
"&. c #AA9666",
"*. c black",
"=. c black",
"-. c black",
";. c #BCBA90",
":. c black",
">. c #CAD0B4",
",. c black",
"<. c black",
"1. c black",
"2. c black",
"3. c black",
"4. c black",
"5. c black",
"6. c black",
"7. c black",
"8. c black",
"9. c black",
"0. c black",
"q. c black",
"w. c black",
"e. c black",
"r. c black",
"t. c black",
"y. c black",
"u. c black",
"i. c #3E412D",
"p. c black",
"a. c black",
"s. c black",
"d. c black",
"f. c #84866B",
"g. c black",
"h. c #979E74",
"j. c black",
"k. c #BAC575",
"l. c black",
"z. c black",
"x. c black",
"c. c black",
"v. c #DBE1D3",
"b. c black",
"n. c black",
"m. c black",
"M. c black",
"N. c black",
"B. c #727E52",
"V. c #6A9A54",
"C. c black",
"Z. c #88A46C",
"A. c black",
"S. c #9AC183",
"D. c black",
"F. c #B4CED2",
"G. c black",
"H. c black",
"J. c black",
"K. c black",
"L. c black",
"P. c black",
"I. c #46624C",
"U. c #3A8867",
"Y. c #5A8A58",
"T. c black",
"R. c #5DAA5C",
"E. c #81AE76",
"W. c black",
"Q. c #84B28C",
"!. c black",
"~. c black",
"^. c black",
"/. c black",
"(. c black",
"). c black",
"_. c black",
"`. c #2D4D3E",
"'. c black",
"]. c #4D7567",
"[. c black",
"{. c black",
"}. c #8C8E8C",
"|. c black",
" X c black",
".X c black",
"XX c #95C3B5",
"oX c black",
"OX c black",
"+X c black",
"@X c black",
"#X c black",
"$X c black",
"%X c black",
"&X c black",
"*X c black",
"=X c black",
"-X c black",
";X c black",
":X c black",
">X c black",
",X c black",
"<X c black",
"1X c black",
"2X c black",
"3X c black",
"4X c black",
"5X c black",
"6X c red",
"7X c red",
"8X c red",
"9X c red",
"0X c #63756B",
"qX c #A379D5",
"wX c red",
"eX c red",
"rX c red",
"tX c red",
"yX c red",
"uX c red",
"iX c red",
"pX c red",
"aX c red",
"sX c red",
"dX c black",
"fX c black",
"gX c black",
"hX c black",
"jX c black",
"kX c black",
"lX c black",
"zX c black",
"xX c black",
"cX c black",
"vX c black",
"bX c black",
"nX c black",
"mX c black",
"MX c black",
"NX c black",
"BX c black",
"VX c #90B5B8",
/* pixels */
"k.k.S.S.Z.Z.E.E.E.E.E.E.V.V.E.E.V.V.S.S.E.E.E.E.Z.Z.V.V.E.E.S.S.",
"k.k.S.S.Z.Z.E.E.E.E.E.E.V.V.E.E.V.V.S.S.E.E.E.E.Z.Z.V.V.E.E.S.S.",
"Z.Z.S.S.E.E.E.E.S.S.E.E.S.S.Z.Z.S.S.S.S.E.E.Z.Z.V.V.V.V.V.V.E.E.",
"Z.Z.S.S.E.E.E.E.S.S.E.E.S.S.Z.Z.S.S.S.S.E.E.Z.Z.V.V.V.V.V.V.E.E.",
"S.S.S.S.S.S.E.E.S.S.S.S.S.S.E.E.S.S.S.S.E.E.V.V.E.E.E.E.Z.Z.E.E.",
"S.S.S.S.S.S.E.E.S.S.S.S.S.S.E.E.S.S.S.S.E.E.V.V.E.E.E.E.Z.Z.E.E.",
"V.V.Z.Z.E.E.E.E.V.V.S.S.E.E.E.E.E.E.S.S.E.E.S.S.k.k.S.S.E.E.E.E.",
"V.V.Z.Z.E.E.E.E.V.V.S.S.E.E.E.E.E.E.S.S.E.E.S.S.k.k.S.S.E.E.E.E.",
"E.E.V.V.Z.Z.V.V.E.E.E.E.E.E.E.E.S.S.E.E.Z.Z.E.E.S.S.E.E.Z.Z.Z.Z.",
"E.E.V.V.Z.Z.V.V.E.E.E.E.E.E.E.E.S.S.E.E.Z.Z.E.E.S.S.E.E.Z.Z.Z.Z.",
"S.S.E.E.V.V.Z.Z.V.V.Z.Z.V.V.E.E.E.E.V.V.E.E.E.E.E.E.S.S.E.E.E.E.",
"S.S.E.E.V.V.Z.Z.V.V.Z.Z.V.V.E.E.E.E.V.V.E.E.E.E.E.E.S.S.E.E.E.E.",
"S.S.S.S.S.S.E.E.Z.Z.E.E.V.V.V.V.Z.Z.V.V.Z.Z.V.V.Z.Z.E.E.E.E.S.S.",
"S.S.S.S.S.S.E.E.Z.Z.E.E.V.V.V.V.Z.Z.V.V.Z.Z.V.V.Z.Z.E.E.E.E.S.S.",
"E.E.S.S.E.E.S.S.E.E.E.E.E.E.V.V.V.V.V.V.V.V.E.E.S.S.Z.Z.S.S.S.S.",
"E.E.S.S.E.E.S.S.E.E.E.E.E.E.V.V.V.V.V.V.V.V.E.E.S.S.Z.Z.S.S.S.S.",
"E.E.E.E.}.}.E.E.E.E.Z.Z.V.V.V.V.Z.Z.Z.Z.V.V.V.V.E.E.E.E.S.S.S.S.",
"E.E.E.E.}.}.E.E.E.E.Z.Z.V.V.V.V.Z.Z.Z.Z.V.V.V.V.E.E.E.E.S.S.S.S.",
"S.S.E.E.S.S.S.S.E.E.E.E.E.E.V.V.E.E.E.E.E.E.E.E.S.S.E.E.E.E.E.E.",
"S.S.E.E.S.S.S.S.E.E.E.E.E.E.V.V.E.E.E.E.E.E.E.E.S.S.E.E.E.E.E.E.",
"E.E.S.S.S.S.E.E.E.E.S.S.E.E.E.E.E.E.E.E.S.S.Z.Z.V.V.E.E.Z.Z.V.V.",
"E.E.S.S.S.S.E.E.E.E.S.S.E.E.E.E.E.E.E.E.S.S.Z.Z.V.V.E.E.Z.Z.V.V.",
"V.V.V.V.E.E.V.V.E.E.V.V.E.E.E.E.S.S.E.E.V.V.E.E.V.V.V.V.V.V.E.E.",
"V.V.V.V.E.E.V.V.E.E.V.V.E.E.E.E.S.S.E.E.V.V.E.E.V.V.V.V.V.V.E.E.",
"E.E.V.V.V.V.V.V.V.V.V.V.E.E.E.E.S.S.S.S.Z.Z.E.E.E.E.V.V.Z.Z.S.S.",
"E.E.V.V.V.V.V.V.V.V.V.V.E.E.E.E.S.S.S.S.Z.Z.E.E.E.E.V.V.Z.Z.S.S.",
"E.E.Z.Z.V.V.E.E.V.V.Z.Z.E.E.S.S.S.S.S.S.S.S.S.S.E.E.Z.Z.E.E.S.S.",
"E.E.Z.Z.V.V.E.E.V.V.Z.Z.E.E.S.S.S.S.S.S.S.S.S.S.E.E.Z.Z.E.E.S.S.",
"E.E.E.E.S.S.S.S.E.E.V.V.E.E.S.S.S.S.E.E.S.S.E.E.S.S.E.E.E.E.E.E.",
"E.E.E.E.S.S.S.S.E.E.V.V.E.E.S.S.S.S.E.E.S.S.E.E.S.S.E.E.E.E.E.E.",
"S.S.E.E.k.k.S.S.S.S.E.E.E.E.V.V.S.S.V.V.E.E.V.V.E.E.E.E.V.V.Z.Z.",
"S.S.E.E.k.k.S.S.S.S.E.E.E.E.V.V.S.S.V.V.E.E.V.V.E.E.E.E.V.V.Z.Z."
};
