/* XPM */
static char *floor[] = {
/* columns rows colors chars-per-pixel */
"32 32 4 1 ",
"  c #241742",
". c #7762B1",
"X c #F7A1C8",
"o c white",
/* pixels */
"                                ",
"                                ",
"                                ",
"                                ",
"                                ",
"                                ",
"        .                       ",
"        .                       ",
"       .X.                      ",
"     ..XoX..                    ",
"       .X.                      ",
"        .                       ",
"        .                       ",
"                                ",
"                        .       ",
"                        X       ",
"                      .XoX.     ",
"                        X       ",
"                        .       ",
"                                ",
"                                ",
"                                ",
"                                ",
"           .                    ",
"          .o.                   ",
"           .                    ",
"                                ",
"                                ",
"                                ",
"                                ",
"                                ",
"                                "
};
