/* XPM */
static char *girl[] = {
/* columns rows colors chars-per-pixel */
"32 32 33 1 ",
"  c None",
". c #4F4072",
"X c #3A57A6",
"o c #5F4A9E",
"O c #715BA4",
"+ c #7762B1",
"@ c #7D69BF",
"# c #8C5CA1",
"$ c #A776BB",
"% c #8773C4",
"& c #E086B8",
"* c #FECDBF",
"= c #B7A2DB",
"- c #A48EED",
"; c #AA93F5",
": c #B39EF7",
"> c #BCAAF7",
", c #CB85C3",
"< c #D488C6",
"1 c #DD8CC6",
"2 c #EF97C7",
"3 c #F7A1C8",
"4 c #F5B8C1",
"5 c #FAB1D5",
"6 c #FAB9D7",
"7 c #C0ADFF",
"8 c #CABCF7",
"9 c #FFBDE1",
"0 c #FFDEC2",
"q c #FFE6D1",
"w c #FFCFE7",
"e c #FFE8F4",
"r c white",
/* pixels */
"                                ",
"                                ",
"             11111              ",
"           <12333321<    3 3    ",
"           5233333322   33&33   ",
"          <6633333332<  23332   ",
"          1ww633323221   &3&    ",
"         ,26ew662*3332,   .     ",
"         <3336621*2333<   O     ",
"          <322<1*0*13<   0O     ",
"          ,2*;0qqq;02,   0O     ",
"           X0%qqqq%0X   0*O     ",
"           3 *qqqq* 2+ 0* O     ",
"          32 ++**++23+4*  O     ",
"      9 322 +r+44+r3+8+   O     ",
"       211++8+r++r+=38:+        ",
"         +:888+77+=2o:+         ",
"         4+o8+-::-+3 +          ",
"       00*   o++++o 9           ",
"     00*    +788887+            ",
"           +88:88:88+           ",
"          +8:8;>8;8:8+          ",
"        o@8:-8-:>-8-:8@o        ",
"          o%8:%++%:8%o          ",
"           oo++  ++oo           ",
"             **  **             ",
"             00  00             ",
"             rr  rr             ",
"             $r  r$             ",
"             #$  $#             ",
"              $  $              ",
"                                "
};
