/* XPM */
static char *_0286_5e44c37a5fd48f0801fdb58ec0e72a87b0b0f7d291726281fb09ce49d999ec46[] = {
/* columns rows colors chars-per-pixel */
"32 32 8 1 ",
"  c #181825",
". c gray18",
"X c #675934",
"o c #B08C48",
"O c #CDB169",
"+ c #E8CD9F",
"@ c #F3E2C6",
"# c None",
/* pixels */
"################################",
"################################",
"################################",
"################################",
"##########    ######    ########",
"##########    ######    ########",
"########  @@++..##..++@@  ######",
"########  @@++..##..++@@  ######",
"########  ++@@..  ..@@++  ######",
"########  ++@@..  ..@@++  ######",
"########  OO@@..oo..@@OO  ######",
"########  OO@@..oo..@@OO  ######",
"########  oo++OO++OO++oo  ######",
"########  oo++OO++OO++oo  ######",
"########  OO@@@@@@@@@@OO  ######",
"########  OO@@@@@@@@@@OO  ######",
"########  @@@@@@@@@@@@@@  ######",
"########  @@@@@@@@@@@@@@  ######",
"########  ++  @@@@@@  ++  ######",
"########  ++  @@@@@@  ++  ######",
"##########XXooOOOOOOooXX########",
"##########XXooOOOOOOooXX########",
"##########    XXXXXX    ########",
"##########    XXXXXX    ########",
"##########  oo@@oo@@oo  ########",
"##########  oo@@oo@@oo  ########",
"############  OO  OO  ##########",
"############  OO  OO  ##########",
"##############  ##  ############",
"##############  ##  ############",
"################################",
"################################"
};
