/* XPM */
static char *strawberrymilk2[] = {
/* columns rows colors chars-per-pixel */
"32 32 18 1 ",
"  c None",
". c #DE7AB1",
"X c #A6CFA7",
"o c #F28CC4",
"O c #EF97C7",
"+ c #F090C5",
"@ c #F59DCF",
"# c #FAA3D4",
"$ c #FFA3D6",
"% c #FAAFD8",
"& c #FAB4DB",
"* c #FAC5DF",
"= c #C8E6C9",
"- c #FAC3E1",
"; c #FAD7EA",
": c #FFD6ED",
"> c #FFE3F1",
", c white",
/* pixels */
"                                ",
"                                ",
"                                ",
"       OOOOOOOOOOOOOOOOO        ",
"       O:::::::::::::::O        ",
"       OOOOOOOOOOOOOOOOOO       ",
"       O::::::::::::::O::O      ",
"      O::,,,:,:,:,,,::O:::.     ",
"      O::,,:,:,::,*,:O@&&..     ",
"     O::,,::,:,,::,::O#&.#.     ",
"     O::::::::::::::O@#.##.     ",
"    O:::::::::::::::O#O%##.     ",
"    OOOOOOOOOOOOOOOOO+%%O#.     ",
"    O:::::::::::::::@%%O##.     ",
"    O:=:==::::::::::@&+#+#.     ",
"    O::=XOO:::::::::O&%+##.     ",
"    O::Xo-#O::::::::O%O#O#.     ",
"    O:=O&:,:O:::==::O%%O#*.     ",
"    O::O#&:,:O:OOX=:O%O%#*.     ",
"    O::O@#&:&OO,&OX:O%%%**.     ",
"    O:::O+@@+O,:#O::O%%%**.     ",
"    O::::OOOOO&#+O:,O>%>=X.     ",
"    O::::::::OOOO*,,O>>*OO.     ",
"    O,::::,,,****,,,O>>O-#.     ",
"    O,,::,,O,,,,,O,,O>>O&.      ",
"    O,,,,,OOO,OOO,O,O>>>.       ",
"    O,O,O,,O,,,,,,,,O>>.        ",
"    O,O,O,,,O,OOO,,,O>O         ",
"    O,,,,,,,,,,,,,,,OO          ",
"    OOOOOOOOOOOOOOOOO           ",
"                                ",
"                                "
};
