/* XPM */
static char *_627805932509[] = {
/* columns rows colors chars-per-pixel */
"32 32 10 1 ",
"  c #321400",
". c #B4641E",
"X c #69A05A",
"o c #E69137",
"O c #F7B34F",
"+ c #91D282",
"@ c #B3E7BE",
"# c #FFD291",
"$ c #FFEAC1",
"% c None",
/* pixels */
"%%%%%%%%%%%%%%%%%%%%%%%%%%%%%%%%",
"%%%%%%%%%%%%%%%%%%%%%%%%%%%%%%%%",
"%%%%%%%%%%%%%%%%%%%%%%%%%%%%%%%%",
"%%%%%%%%%%%%%%%%%%%%%%%%%%%%%%%%",
"%%%%%%%%%%%%%%%%%%%%%%%%%%%%%%%%",
"%%%%%%%%%%%%%%%%%%%%%%%%%%%%%%%%",
"%%%%%%%%%%%%%%%%%%%%  %%%%%%%%%%",
"%%%%%%%%%%%%%%%%%%  +@ %%%%%%%%%",
"%%%%%%%%%%%%%%%%% @@+++ %%%%%%%%",
"%%%%%%%%%%%%%%%%%%  X++@ %%%%%%%",
"%%%%%%%%%%%%%%%%%%%% X++ %%%%%%%",
"%%%%%%%%%%%%%%%%%%%% XX+X %%%%%%",
"%%%%%%%%%%%%%%%%    X  @ %%%%%%%",
"%%%%%%%%%%%%%%  ##O. % @ %%%%%%%",
"%%%%%%%%%%%%% O#OOoo. % %%%%%%%%",
"%%%%%%%%%%%% O#$$ooo. %%%%%%%%%%",
"%%%%%%%%%%%% #Ooo$o.. %%%%%%%%%%",
"%%%%%%%%%%% O#$Oooo. %%%%%%%%%%%",
"%%%%%%%%%%% #Oo$oo.. %%%%%%%%%%%",
"%%%%%%%%   #$ooo... %%%%%%%%%%%%",
"%%%%%%%%% O#O#o..  %%%%%%%%%%%%%",
"%%%%%%%%% #Ooo.. %%%%%%%%%%%%%%%",
"%%%%%%   #oo..  %%%%%%%%%%%%%%%%",
"%%%%%%% Oo... %% %%%%%%%%%%%%%%%",
"%%%%%% O.    %%%%%%%%%%%%%%%%%%%",
"%%%%%%   %%% %%%%%%%%%%%%%%%%%%%",
"%%%%% %%%%%%%%%%%%%%%%%%%%%%%%%%",
"%%%%%%%%%%%%%%%%%%%%%%%%%%%%%%%%",
"%%%%%%%%%%%%%%%%%%%%%%%%%%%%%%%%",
"%%%%%%%%%%%%%%%%%%%%%%%%%%%%%%%%",
"%%%%%%%%%%%%%%%%%%%%%%%%%%%%%%%%",
"%%%%%%%%%%%%%%%%%%%%%%%%%%%%%%%%"
};
