/* XPM */
static char *left[] = {
/* columns rows colors chars-per-pixel */
"32 32 69 1 ",
"  c None",
". c #4E3F72",
"X c #3E58A8",
"o c #5F489E",
"O c #705BA3",
"+ c #7762B2",
"@ c #7863B3",
"# c #7A65B4",
"$ c #7B66B5",
"% c #7D69C0",
"& c #8C5BA1",
"* c #836CB5",
"= c #876FB4",
"- c #8C72BC",
"; c #A775BC",
": c #8773C5",
"> c #E285B9",
", c #E386BA",
"< c #FFCDBF",
"1 c #FFCEBE",
"2 c #FFCEBF",
"3 c #9B85E2",
"4 c #9D88E6",
"5 c #A38EEE",
"6 c #A490EF",
"7 c #AA93F7",
"8 c #B39EF8",
"9 c #BDABF9",
"0 c #CC84C3",
"q c #D587C7",
"w c #DC8CC7",
"e c #DF8CC7",
"r c #E38FCA",
"t c #EC95C7",
"y c #F197C8",
"u c #F49AC8",
"i c #F79DCA",
"p c #DDB9C2",
"a c #F9A0C7",
"s c #F9A1C7",
"d c #F9A1C8",
"f c #F9A3C8",
"g c #FFA4CC",
"h c #FBB2D6",
"j c #FBB9D7",
"k c #FBBAD8",
"l c #FBBAD9",
"z c #FBBBD9",
"x c #C1AEFF",
"c c #CBBDF9",
"v c #FFBEE2",
"b c #FFCEC0",
"n c #FECFC0",
"m c #F5CEC9",
"M c #F6D7C4",
"N c #FFDFC2",
"B c #F7D0CA",
"V c #FDC2DE",
"C c #FFE0C2",
"Z c #FFE5CF",
"A c #FEE5D3",
"S c #FFE6D2",
"D c #FFE6D3",
"F c #FFE7D3",
"G c #FFD0E8",
"H c #FFD1E8",
"J c #FFE9F5",
"K c #FDFCFE",
"L c white",
/* pixels */
"                                ",
"                wwwww           ",
"            > >yddddyrq         ",
"           >d>d>dddddyh         ",
"           >ddd>aaddjkkq        ",
"            >d>ydddkVGGw        ",
"           0u.d2ykkGGJky0       ",
"           qdOy2wykkkkddq       ",
"            wO2C2wqddudq        ",
"            0ONFF7Zrrrr0        ",
"             m2FF:FFX00         ",
"             p 2FFFFd           ",
"             OF  n*+yd          ",
"             OFB+LLLLtyd v      ",
"               Fn@+@LLwwy       ",
"                +M*3@L+         ",
"                58-64+          ",
"               o+xx+o           ",
"              @xxcccx+          ",
"             +cc8cc8cc+         ",
"            +c8c7c97c8c+        ",
"          o%c85c5985c58c%o      ",
"            o:c8:++:8c:o        ",
"             oo++22++oo         ",
"                 22             ",
"                 NN             ",
"                 LL             ",
"                 LL             ",
"                 ;&             ",
"                &&&             ",
"                                ",
"                                "
};
