/* XPM */
static char *_968_c454ecbf6a6452d01435002158e0ca5c45075a29cddcf5a74336adbf1c53d63a[] = {
/* columns rows colors chars-per-pixel */
"32 32 8 1 ",
"  c #181825",
". c gray18",
"X c #675934",
"o c #B08C48",
"O c #CDB169",
"+ c #E8CD9F",
"@ c #F3E2C6",
"# c None",
/* pixels */
"################################",
"################################",
"#######    #####################",
"#######    #####################",
"#####  @@OO  ###################",
"#####  @@OO  ###################",
"#####  OOXXXX###################",
"#####  OOXXXX###################",
"#####  XX@@oo  #################",
"#####  XX@@oo  #################",
"#####  XXOO@@XX    #############",
"#####  XXOO@@XX    #############",
"###  OOooOO@@XXOOOO..  #########",
"###  OOooOO@@XXOOOO..  #########",
"#  OO@@@@OO++oo++@@@@++  #######",
"#  OO@@@@OO++oo++@@@@++  #######",
"#  @@@@@@@@@@OO++@@@@@@++XX  ###",
"#  @@@@@@@@@@OO++@@@@@@++XX  ###",
"#  ++  @@@@++OO++@@@@@@@@oo++  #",
"#  ++  @@@@++OO++@@@@@@@@oo++  #",
"###XXOO++++OOOOOO++@@++++OOXX  #",
"###XXOO++++OOOOOO++@@++++OOXX  #",
"#####    XXooOOooOO++oo++OO  ###",
"#####    XXooOOooOO++oo++OO  ###",
"###########XX@@XX      oooo  ###",
"###########XX@@XX      oooo  ###",
"###########  ++  ####XX++  #####",
"###########  ++  ####XX++  #####",
"###########    ######    #######",
"###########    ######    #######",
"################################",
"################################"
};
