/* XPM */
static char *ee9c3f0b13914426ffb5a97e9e4ef673ClhM5jWy14RrtS8j[] = {
/* columns rows colors chars-per-pixel */
"32 32 8 1 ",
"  c None",
". c #181825",
"X c gray18",
"o c #675934",
"O c #B08C48",
"+ c #CDB169",
"@ c #E8CD9F",
"# c #F3E2C6",
/* pixels */
"                                ",
"                                ",
"                      ....      ",
"                      ....      ",
"                    ..++##..    ",
"                    ..++##..    ",
"                    oooo++..    ",
"                    oooo++..    ",
"                  ..OO##oo..    ",
"                  ..OO##oo..    ",
"              ....oo##++oo..    ",
"              ....oo##++oo..    ",
"          ..XX++++oo##++OO++..  ",
"          ..XX++++oo##++OO++..  ",
"        ..@@####@@OO@@++####++..",
"        ..@@####@@OO@@++####++..",
"    ..oo@@######@@++##########..",
"    ..oo@@######@@++##########..",
"  ..@@OO########@@++@@####..@@..",
"  ..@@OO########@@++@@####..@@..",
"  ..oo++@@@@##@@++++++@@@@++oo  ",
"  ..oo++@@@@##@@++++++@@@@++oo  ",
"    ..++@@OO@@++OO++OOoo....    ",
"    ..++@@OO@@++OO++OOoo....    ",
"    ..OOOO......oo##oo          ",
"    ..OOOO......oo##oo          ",
"      ..@@oo    ..@@..          ",
"      ..@@oo    ..@@..          ",
"        ....      ....          ",
"        ....      ....          ",
"                                ",
"                                "
};
