/* XPM */
static char *right[] = {
/* columns rows colors chars-per-pixel */
"32 32 58 1 ",
"  c None",
". c #3E58A8",
"X c #5F489E",
"o c #7762B2",
"O c #7863B3",
"+ c #7A65B4",
"@ c #7D69C0",
"# c #8C5BA1",
"$ c #876FB4",
"% c #A775BC",
"& c #8773C5",
"* c #FFCDBF",
"= c #FFCEBE",
"- c #FFCEBF",
"; c #9D88E6",
": c #A28DEC",
"> c #A38EEE",
", c #AA93F7",
"< c #B39EF8",
"1 c #BDABF9",
"2 c #CC84C3",
"3 c #D587C7",
"4 c #DC8CC7",
"5 c #DF8CC7",
"6 c #E08DC7",
"7 c #E38FCA",
"8 c #EC95C7",
"9 c #F197C8",
"0 c #F298C8",
"q c #F49AC8",
"w c #F79DCA",
"e c #F9A0C7",
"r c #F9A1C7",
"t c #F9A1C8",
"y c #F9A3C8",
"u c #FAA2C9",
"i c #FFA4CC",
"p c #F0B6C6",
"a c #FBB2D6",
"s c #FBB9D7",
"d c #FBBAD8",
"f c #FBBAD9",
"g c #FBBBD9",
"h c #C9B7E4",
"j c #C1AEFF",
"k c #CBBDF9",
"l c #FFBEE2",
"z c #FFCEC0",
"x c #FFDFC2",
"c c #FDC2DE",
"v c #FFE0C2",
"b c #FFE5CF",
"n c #FFE7D3",
"m c #FFD0E8",
"M c #FFD1E8",
"N c #FFE9F5",
"B c #FDFCFE",
"V c white",
/* pixels */
"                                ",
"             55555              ",
"           359tttt953           ",
"           a9tttttt99           ",
"          3ddsttrrtrw3          ",
"          5mmcdttt9t96          ",
"         29dNmmdd9=ttw2         ",
"         3ttdddd95=9tt3         ",
"          3twtt35=v=65          ",
"          27777b,nnx92          ",
"           22.nn&nnx            ",
"             tnnnn=             ",
"            t9o$z               ",
"        l t98VVVVo              ",
"         955VV+ooVo             ",
"           oV+:jjoh             ",
"            o;:p<:o             ",
"             Xo=xoX             ",
"            ojkkk=xo            ",
"           okk<kk<kko           ",
"          ok<k,1k,k<ko          ",
"        X@k<:k:<1:k:<k@X        ",
"          X&k<&oo&<k&X          ",
"           XXoo==ooXX           ",
"               ==               ",
"               xx               ",
"               VV               ",
"               VV               ",
"               #%               ",
"               ###              ",
"                                ",
"                                "
};
