/* XPM */
static char *_627805240860[] = {
/* columns rows colors chars-per-pixel */
"32 32 10 1 ",
"  c #3E412D",
". c #46624C",
"X c #727E52",
"o c #4D7567",
"O c #6A9A54",
"+ c #AA9666",
"@ c #81AE76",
"# c #9AC183",
"$ c #CAD0B4",
"% c None",
/* pixels */
"%%%%%%%%%%%%        %%%%%%%%%%%%",
"%%%%%%%%%%%%        %%%%%%%%%%%%",
"%%%%%%%%    @@@@@@@@      %%%%%%",
"%%%%%%%%    @@@@@@@@      %%%%%%",
"%%%%%%  @@@@@@@@@@@@@@@@@@  %%%%",
"%%%%%%  @@@@@@@@@@@@@@@@@@  %%%%",
"%%%%  @@@@@@@@@@@@@@@@@@@@    %%",
"%%%%  @@@@@@@@@@@@@@@@@@@@    %%",
"%%  ##$$@@@@@@@@@@@@@@##$$@@  %%",
"%%  ##$$@@@@@@@@@@@@@@##$$@@  %%",
"%%  @@##@@@@@@@@##@@@@@@##@@@@  ",
"%%  @@##@@@@@@@@##@@@@@@##@@@@  ",
"  OOOO@@########$$OOOO@@@@##@@  ",
"  OOOO@@########$$OOOO@@@@##@@  ",
"  ooOOOO$$@@@@OOOOOOOOOO@@@@OO..",
"  ooOOOO$$@@@@OOOOOOOOOO@@@@OO..",
"  ooOOOOOOOOOOOOOOOOooOOOOOOOO..",
"  ooOOOOOOOOOOOOOOOOooOOOOOOOO..",
"  ooooOOOOOOOOOOOOOOooooOOOOOO..",
"  ooooOOOOOOOOOOOOOOooooOOOOOO..",
"    ooooOOOOOOOOooooooooooOOoo  ",
"    ooooOOOOOOOOooooooooooOOoo  ",
"%%  oo++++++oo......oooooooooo  ",
"%%  oo++++++oo......oooooooooo  ",
"%%%%  ++++++..++++++..++++oo  %%",
"%%%%  ++++++..++++++..++++oo  %%",
"%%%%%%  ......++++++..++++    %%",
"%%%%%%  ......++++++..++++    %%",
"%%%%%%XXXX    ........oo    %%%%",
"%%%%%%XXXX    ........oo    %%%%",
"%%%%%%%%%%%%XXXX  XX      %%%%%%",
"%%%%%%%%%%%%XXXX  XX      %%%%%%"
};
