/* XPM */
static char *wall2[] = {
/* columns rows colors chars-per-pixel */
"32 32 5 1 ",
"  c None",
". c #1B1330",
"X c #392163",
"o c #8569B4",
"O c #A776BB",
/* pixels */
"                                ",
"                                ",
"                                ",
"                                ",
"    XXXXXXXXX                   ",
"    XoooooooX                   ",
"    XoXXXXXoX       XXXXXXXXXX  ",
"    XoX...XoX       XooooooooX  ",
"    XoX.O.XoXXXXXXX XoXXXXXXoX  ",
"    XoX...ooooooooX XoX....XoX  ",
"    XoX.OOoXXXXXXoX XoX.O..XoX  ",
"    XoX...oX....XoX XoX....XoX  ",
"    XoX..OoXOOOOXoX XoX.O.OXoX  ",
" XXXXoX.O.oX....XoX XoX....XoX  ",
" XoooooooooX....XoX XoX.OO.XoX  ",
" XoXXXXXXXoX.O.OXoX XoX....XoX  ",
" XoX.....XoX....XoX XoX.O..XoX  ",
" XoXOO.OOXoX....XoXXXoX..O.XoX  ",
" XoX.....XoXO...Xooooooooo.XoX  ",
" XoX.OOO.XoX....XoXXXXXXXoOXoX  ",
" XoX.....XoX..OOXoX.....Xo.XoX  ",
" XoXO.O..XoXOO..XoXOO.OOXo.XoX  ",
" XoX.....XoX...OXoX.....Xo.XoXXX",
" XoX.O...XoX....XoX.O...XooooooX",
" XoX...OOXoXOOO.XoX.....XXXXXXoX",
" XoXOO...XoX....XoX..OO......XoX",
" XoX.....XoXOO.OXoX......OOO.XoX",
" XoXO..O.XoX....XoXOO........XoX",
" XoX.....XoXO.O.XoX...O.O.O.OXoX",
" XoX..O..XoX....XoX..........XoX",
" XoXXXXXXXoXXXXXXoXXXXXXXXXXXXoX",
" XoooooooooooooooooooooooooooooX"
};
